<svg xmlns="http://www.w3.org/2000/svg" viewBox="0 0 48 48" width="48" height="48">
  <path fill="#FFC107" d="M43.6 20.5H42V20H24v8h11.3C34 31.4 29.5 35 24 35 16.8 35 11 29.2 11 22S16.8 9 24 9c3.3 0 6.3 1.2 8.6 3.3l5.7-5.7C34.6 3.3 29.6 1 24 1 11.9 1 2 10.9 2 23s9.9 22 22 22c11 0 21-8 21-22 0-1.2-.1-2.3-.4-3.5z"/>
  <path fill="#FF3D00" d="M6.3 14.7l6.6 4.8C14.5 15.5 18.8 13 24 13c3.3 0 6.3 1.2 8.6 3.3l5.7-5.7C34.6 3.3 29.6 1 24 1 15.3 1 7.8 5.6 6.3 14.7z"/>
  <path fill="#4CAF50" d="M24 45c5.4 0 10.3-1.8 14.1-5l-6.5-5.3C29.7 36.5 26.9 37.5 24 37.5 18.6 37.5 14.1 33.9 12.7 29l-6.6 5.1C7.5 40.6 15.1 45 24 45z"/>
  <path fill="#1976D2" d="M43.6 20.5H42V20H24v8h11.3c-1.1 3.2-3.6 5.6-6.8 6.7l6.5 5.3C37.4 41.7 43 37.5 43.6 28.5c.3-1.2.4-2.3.4-3.5 0-1.2-.1-2.3-.4-3.5z"/>
</svg>
